<?xml version="1.0" encoding="iso-8859-1"?>
<!-- Generator: Adobe Illustrator 15.1.0, SVG Export Plug-In . SVG Version: 6.00 Build 0)  -->
<!DOCTYPE svg PUBLIC "-//W3C//DTD SVG 1.1//EN" "http://www.w3.org/Graphics/SVG/1.1/DTD/svg11.dtd">
<svg version="1.1" id="Layer_1" xmlns="http://www.w3.org/2000/svg" xmlns:xlink="http://www.w3.org/1999/xlink" x="0px" y="0px"
	 width="250px" height="249.984px" viewBox="0 0 250 249.984" style="enable-background:new 0 0 250 249.984;" xml:space="preserve"
	>
<g>
	<g>
		<path style="fill:#FFFFFF;" d="M248.642,124.99C248.642,56.712,193.285,1.355,125,1.355C56.715,1.355,1.363,56.712,1.363,124.99
			c0,68.29,55.352,123.641,123.637,123.641C193.285,248.631,248.642,193.279,248.642,124.99z"/>
		<g>
			<path style="fill:#144B8E;" d="M125.005,0C55.963,0,0,55.963,0,124.99c0,69.037,55.963,124.995,125.005,124.995
				S250,194.026,250,124.99C250,55.963,194.047,0,125.005,0z M125.005,246.5c-67.123,0-121.521-54.397-121.521-121.51
				c0-67.105,54.397-121.508,121.521-121.508c67.113,0,121.516,54.403,121.516,121.508C246.521,192.103,192.118,246.5,125.005,246.5
				z"/>
			<path style="fill:#144B8E;" d="M119.35,189.82V83.649c1.091,0.227,2.236,0.384,3.424,0.475v106.288
				c0.722,0.065,1.464,0.101,2.222,0.101c0.763,0,1.5-0.035,2.237-0.101V84.124c1.187-0.091,2.328-0.248,3.408-0.475v106.167
				c1.616-0.43,3.121-1.061,4.484-1.904V82.25c1.303-0.581,2.454-1.27,3.409-2.04v104.732c2.706-3.212,4.297-7.889,4.297-14.195
				l0.01-95.58c0.011-5.204,4.232-7.853,8.469-7.853c4.247,0,8.469,2.648,8.469,7.857l-0.025,95.575
				c0,16.548-8.498,29.062-22.437,33.622c38.657-5.929,68.255-39.323,68.255-79.634c0-44.492-36.077-80.556-80.571-80.556
				c-44.5,0-80.571,36.064-80.571,80.556c0,40.3,29.592,73.685,68.224,79.619c-13.938-4.55-22.421-17.068-22.421-33.606v-95.58
				c0-5.204,4.211-7.853,8.464-7.853c4.242,0,8.458,2.648,8.458,7.853v95.58c0,6.322,1.606,11.009,4.323,14.215V80.21
				c0.944,0.77,2.096,1.459,3.414,2.04v105.661C116.249,188.755,117.743,189.391,119.35,189.82z"/>
		</g>
	</g>
	<g>
		<path style="fill:#144B8E;" d="M59.195,186.725l0.424-0.43l6.736,6.515l-0.414,0.43l-0.555-0.535
			c-0.652-0.632-1.308-0.899-1.97-0.798c-0.424,0.061-1.091,0.575-2,1.515l-9.822,10.16c-0.768,0.798-1.232,1.374-1.378,1.722
			c-0.106,0.273-0.106,0.591,0,0.96c0.151,0.515,0.424,0.949,0.798,1.313l0.555,0.536l-0.419,0.429l-6.731-6.515l0.409-0.424
			l0.565,0.546c0.646,0.621,1.298,0.883,1.954,0.787c0.435-0.061,1.106-0.561,2.015-1.505l9.822-10.165
			c0.773-0.798,1.228-1.363,1.374-1.717c0.111-0.273,0.111-0.597-0.005-0.975c-0.151-0.505-0.414-0.939-0.783-1.298L59.195,186.725z
			"/>
		<path style="fill:#144B8E;" d="M32.274,187.785l6.044-4.545l0.359,0.475c-1.045,1.03-1.763,2-2.146,2.919
			c-0.384,0.914-0.505,1.894-0.348,2.934c0.151,1.046,0.525,1.965,1.121,2.753c0.671,0.894,1.5,1.429,2.489,1.605
			c0.985,0.167,1.823-0.01,2.515-0.53c0.54-0.399,0.884-0.949,1.04-1.651c0.243-1.02,0.152-2.929-0.278-5.741
			c-0.353-2.293-0.525-3.914-0.505-4.868c0.021-0.944,0.222-1.823,0.616-2.626c0.394-0.798,0.939-1.46,1.636-1.985
			c1.318-0.994,2.848-1.343,4.58-1.035c1.732,0.304,3.202,1.268,4.419,2.879c0.384,0.51,0.707,1.015,0.959,1.52
			c0.167,0.298,0.424,0.97,0.783,2.01c0.358,1.046,0.616,1.672,0.792,1.899c0.162,0.217,0.354,0.333,0.576,0.363
			c0.217,0.025,0.556-0.081,1.005-0.328l0.353,0.479l-5.989,4.51l-0.354-0.475c1.081-1.167,1.798-2.172,2.136-3.025
			c0.338-0.843,0.419-1.813,0.248-2.898c-0.171-1.091-0.611-2.096-1.308-3.024c-0.813-1.076-1.732-1.712-2.772-1.904
			c-1.035-0.202-1.939-0.005-2.712,0.576c-0.424,0.323-0.772,0.772-1.03,1.338c-0.268,0.565-0.394,1.237-0.394,2.021
			c-0.01,0.535,0.131,1.857,0.424,3.984c0.283,2.131,0.414,3.696,0.394,4.701c-0.025,1.005-0.207,1.898-0.571,2.682
			c-0.354,0.777-0.889,1.438-1.611,1.975c-1.257,0.954-2.697,1.282-4.328,1.005c-1.631-0.283-3.01-1.167-4.126-2.651
			c-0.697-0.93-1.217-2.081-1.54-3.465c-0.146-0.641-0.293-1.065-0.45-1.262c-0.167-0.223-0.369-0.354-0.606-0.399
			c-0.242-0.035-0.596,0.051-1.065,0.268L32.274,187.785z"/>
		<path style="fill:#144B8E;" d="M20.649,164.869l4.51-2.465l0.268,0.556c-0.757,0.5-1.272,0.929-1.53,1.282
			c-0.414,0.571-0.631,1.172-0.662,1.798c-0.02,0.632,0.167,1.349,0.561,2.161l1.349,2.772l15.028-7.312
			c1.212-0.591,1.899-1.086,2.07-1.495c0.232-0.561,0.162-1.228-0.212-1.995l-0.333-0.682l0.536-0.257l4.06,8.337l-0.541,0.263
			l-0.333-0.697c-0.404-0.828-0.944-1.298-1.616-1.403c-0.414-0.061-1.171,0.177-2.277,0.717l-15.023,7.308l1.146,2.363
			c0.45,0.924,0.833,1.54,1.157,1.863c0.429,0.409,0.99,0.672,1.687,0.772c0.697,0.106,1.51-0.025,2.429-0.389l0.272,0.551
			l-4.731,2.015L20.649,164.869z"/>
		<path style="fill:#144B8E;" d="M30.259,144.704l2,8.231l3.696,0.626c0.919,0.157,1.576,0.183,1.985,0.086
			c0.323-0.075,0.576-0.303,0.742-0.666c0.167-0.374,0.167-1.076-0.005-2.121l0.581-0.137l1.621,6.696l-0.576,0.142
			c-0.374-0.854-0.717-1.379-1.035-1.586c-0.631-0.403-1.793-0.747-3.484-1.024l-19.306-3.242l-0.142-0.546l15.897-11.686
			c1.278-0.939,2.07-1.707,2.378-2.292c0.303-0.591,0.379-1.323,0.217-2.207l0.581-0.142l2.03,8.388l-0.581,0.146
			c-0.248-0.843-0.525-1.373-0.838-1.616c-0.308-0.242-0.642-0.317-0.99-0.237c-0.455,0.111-1.131,0.5-2.025,1.157L30.259,144.704z
			 M29.208,145.422l-7.721,5.686l9.494,1.621L29.208,145.422z"/>
		<path style="fill:#144B8E;" d="M13.559,135.62l0.101-5.939l16.629-13.099l-12.62-0.207c-1.343-0.025-2.182,0.116-2.52,0.409
			c-0.46,0.389-0.697,1.015-0.707,1.874l-0.015,0.757l-0.596-0.01l0.126-7.612l0.596,0.012l-0.01,0.771
			c-0.015,0.926,0.253,1.588,0.803,1.982c0.343,0.242,1.126,0.374,2.353,0.399l18.432,0.303l-0.01,0.579l-17.856,14.132
			l13.473,0.223c1.343,0.02,2.187-0.111,2.525-0.395c0.459-0.398,0.692-1.024,0.707-1.873l0.01-0.772l0.596,0.005l-0.122,7.615
			l-0.601-0.011l0.01-0.757c0.021-0.935-0.252-1.601-0.798-2c-0.343-0.242-1.126-0.374-2.348-0.394l-15.215-0.253
			c-0.747,0.621-1.247,1.096-1.495,1.419c-0.237,0.323-0.465,0.803-0.682,1.435c-0.101,0.313-0.157,0.782-0.172,1.419L13.559,135.62
			z"/>
		<path style="fill:#144B8E;" d="M28.936,95.117c0.702-1.379,1.49-2.346,2.368-2.891c1.222-0.755,2.52-0.944,3.909-0.578
			c1.045,0.275,1.964,0.876,2.752,1.795c0.783,0.922,1.247,2.018,1.374,3.298c0.136,1.275-0.111,3.103-0.743,5.484l-2.651,9.979
			l-0.571-0.154l0.207-0.791c0.237-0.883,0.121-1.596-0.338-2.131c-0.298-0.333-1.04-0.662-2.227-0.975l-13.66-3.621
			c-1.313-0.349-2.172-0.419-2.601-0.21c-0.561,0.291-0.949,0.829-1.161,1.629l-0.212,0.793l-0.576-0.149l2.424-9.138
			c0.454-1.707,0.934-3.042,1.459-4.002c0.793-1.462,1.768-2.475,2.939-3.045c1.167-0.568,2.368-0.687,3.605-0.361
			c1.061,0.28,1.924,0.856,2.59,1.725C28.492,92.638,28.86,93.753,28.936,95.117z M25.921,103.068
			c0.172-0.363,0.344-0.79,0.51-1.277c0.172-0.482,0.333-1.018,0.485-1.613c0.409-1.515,0.545-2.705,0.424-3.55
			c-0.126-0.851-0.475-1.57-1.041-2.156c-0.565-0.583-1.257-0.982-2.055-1.194c-1.237-0.331-2.424-0.104-3.565,0.671
			c-1.141,0.78-1.969,2.134-2.479,4.068c-0.278,1.035-0.414,2.005-0.399,2.896L25.921,103.068z M36.026,105.75
			c0.601-1.131,1.061-2.283,1.369-3.461c0.5-1.879,0.455-3.429-0.131-4.639s-1.5-1.987-2.747-2.315
			c-0.818-0.222-1.671-0.207-2.545,0.041c-0.878,0.248-1.671,0.818-2.378,1.709c-0.702,0.889-1.247,2.081-1.641,3.568
			c-0.172,0.644-0.303,1.194-0.409,1.661c-0.101,0.462-0.167,0.838-0.187,1.134L36.026,105.75z"/>
		<path style="fill:#144B8E;" d="M29.88,68.305l-0.521-0.291l3.717-6.79l0.525,0.288l-0.394,0.717
			c-0.414,0.758-0.414,1.51-0.005,2.26c0.182,0.361,0.808,0.833,1.874,1.419l7.782,4.26c1.924,1.053,3.318,2.061,4.166,3.025
			c0.849,0.964,1.349,2.214,1.5,3.75c0.142,1.53-0.308,3.26-1.363,5.184c-1.146,2.093-2.379,3.482-3.707,4.171
			c-1.313,0.689-2.711,0.921-4.186,0.702c-1.01-0.157-2.662-0.871-4.974-2.134L26.8,80.76c-1.182-0.646-2.05-0.909-2.596-0.785
			c-0.545,0.124-1.015,0.548-1.414,1.275l-0.394,0.722l-0.525-0.288l4.545-8.289l0.52,0.285l-0.404,0.737
			c-0.429,0.791-0.49,1.498-0.177,2.106c0.207,0.421,0.854,0.929,1.924,1.515l8.363,4.583c0.752,0.406,1.636,0.806,2.676,1.197
			c1.041,0.394,1.924,0.556,2.656,0.49c0.737-0.065,1.464-0.338,2.182-0.82c0.717-0.485,1.343-1.215,1.878-2.194
			c0.687-1.257,1.03-2.533,1.03-3.818c-0.01-1.292-0.338-2.351-0.995-3.184c-0.657-0.829-2.005-1.806-4.035-2.919l-7.767-4.252
			c-1.202-0.657-2.02-0.939-2.469-0.836c-0.616,0.136-1.126,0.573-1.525,1.295L29.88,68.305z"/>
		<path style="fill:#144B8E;" d="M60.225,54.258l0.439-0.321l3.151,5.368L52.463,71.877l-0.444-0.399l0.55-0.614
			c0.621-0.687,0.843-1.376,0.662-2.078c-0.106-0.399-0.621-1.015-1.545-1.849l-10.473-9.461c-1.021-0.917-1.752-1.376-2.212-1.386
			c-0.631-0.005-1.222,0.301-1.778,0.914l-0.555,0.611l-0.439-0.402l6.635-7.347l0.445,0.399c-0.788,0.853-1.252,1.527-1.399,2.027
			s-0.151,0.929-0.005,1.285c0.137,0.358,0.692,0.975,1.657,1.848l10.201,9.211c0.662,0.599,1.171,0.944,1.54,1.041
			c0.252,0.056,0.51,0.02,0.768-0.106c0.263-0.131,0.869-0.715,1.808-1.76l1.07-1.187c1.121-1.245,1.823-2.204,2.091-2.874
			c0.278-0.669,0.358-1.421,0.268-2.254C61.215,56.66,60.851,55.579,60.225,54.258z"/>
		<path style="fill:#144B8E;" d="M69.123,28.082c2.459-1.426,5.121-1.727,8.009-0.909c2.884,0.82,5.131,2.626,6.752,5.416
			c1.667,2.871,2.146,5.782,1.429,8.736c-0.707,2.949-2.354,5.173-4.924,6.671c-2.605,1.512-5.333,1.853-8.181,1.033
			c-2.843-0.821-5.125-2.704-6.828-5.644c-1.747-3.004-2.141-6.05-1.202-9.135C65.002,31.574,66.648,29.517,69.123,28.082z
			 M69.451,29.254c-1.692,0.982-2.682,2.396-2.984,4.25c-0.364,2.3,0.323,4.959,2.075,7.971c1.798,3.088,3.833,5.08,6.126,5.979
			c1.742,0.677,3.449,0.533,5.115-0.432c1.778-1.03,2.843-2.581,3.197-4.633c0.354-2.063-0.338-4.583-2.071-7.567
			c-1.883-3.237-3.918-5.282-6.12-6.136C73.037,28.017,71.249,28.204,69.451,29.254z"/>
		<path style="fill:#144B8E;" d="M95.771,27.564l9.938,5.52c1.636,0.917,2.969,1.47,4,1.677c1.03,0.212,2,0.212,2.919,0.022
			l0.162,0.573l-10.014,2.831l-0.157-0.573c0.601-0.171,1-0.394,1.207-0.667c0.207-0.278,0.278-0.541,0.207-0.788
			c-0.071-0.25-0.187-0.459-0.338-0.629c-0.156-0.167-0.581-0.444-1.283-0.823l-9.296-5.136l1.924,6.785
			c0.298,1.065,0.561,1.75,0.798,2.05c0.177,0.232,0.449,0.391,0.838,0.485c0.51,0.126,1.02,0.114,1.52-0.025l0.712-0.202
			l0.162,0.576l-8.974,2.535l-0.167-0.576l0.752-0.212c0.868-0.243,1.424-0.677,1.676-1.295c0.151-0.401,0.056-1.232-0.303-2.497
			l-3.848-13.6c-0.298-1.06-0.565-1.755-0.798-2.065c-0.172-0.225-0.444-0.378-0.823-0.472c-0.52-0.121-1.035-0.111-1.53,0.028
			l-0.747,0.212l-0.162-0.571l8.969-2.54l0.167,0.576l-0.712,0.199c-0.49,0.139-0.929,0.392-1.318,0.758
			c-0.268,0.257-0.424,0.568-0.455,0.934c-0.03,0.369,0.101,1.065,0.394,2.101l1.823,6.444c0.151-0.257,0.671-1.113,1.565-2.573
			c2.282-3.687,3.605-6.088,3.984-7.211c0.162-0.49,0.197-0.896,0.111-1.207c-0.071-0.237-0.232-0.412-0.505-0.535
			c-0.272-0.121-0.662-0.104-1.177,0.041l-0.485,0.134l-0.162-0.571l7.731-2.184l0.162,0.571c-0.455,0.139-0.848,0.318-1.191,0.54
			c-0.338,0.215-0.728,0.566-1.177,1.043c-0.45,0.477-0.959,1.192-1.541,2.136c-0.171,0.272-0.924,1.633-2.252,4.078L95.771,27.564z
			"/>
		<path style="fill:#144B8E;" d="M126.398,27.948l-8.463,0.182l-1.414,3.479c-0.344,0.861-0.515,1.498-0.505,1.917
			c0.005,0.333,0.167,0.624,0.495,0.869c0.328,0.248,1.01,0.396,2.065,0.45l0.015,0.596l-6.888,0.146l-0.015-0.596
			c0.914-0.179,1.5-0.401,1.762-0.667c0.536-0.525,1.121-1.59,1.758-3.184l7.307-18.162l0.561-0.018l8.009,18.033
			c0.642,1.447,1.217,2.386,1.723,2.81c0.515,0.422,1.212,0.657,2.105,0.689l0.015,0.598l-8.625,0.185l-0.015-0.601
			c0.868-0.058,1.454-0.214,1.757-0.472c0.298-0.252,0.444-0.561,0.439-0.914c-0.01-0.472-0.242-1.214-0.691-2.227L126.398,27.948z
			 M125.924,26.764l-3.903-8.759l-3.616,8.918L125.924,26.764z"/>
		<path style="fill:#144B8E;" d="M138.796,13.579l5.782,1.356l9.262,19.035l2.889-12.281c0.308-1.311,0.354-2.159,0.137-2.553
			c-0.283-0.53-0.844-0.894-1.682-1.091l-0.737-0.174l0.136-0.578l7.408,1.742l-0.131,0.576l-0.758-0.174
			c-0.898-0.212-1.601-0.088-2.105,0.366c-0.309,0.278-0.602,1.018-0.884,2.212l-4.227,17.947l-0.561-0.131l-10.009-20.452
			l-3.081,13.114c-0.308,1.311-0.358,2.159-0.151,2.548c0.293,0.535,0.854,0.901,1.682,1.091l0.753,0.179l-0.137,0.581l-7.413-1.74
			l0.136-0.583l0.737,0.174c0.914,0.214,1.621,0.093,2.121-0.364c0.313-0.28,0.606-1.018,0.889-2.212l3.479-14.809
			c-0.444-0.866-0.798-1.455-1.065-1.763c-0.263-0.305-0.687-0.626-1.252-0.969c-0.283-0.169-0.732-0.323-1.354-0.467
			L138.796,13.579z"/>
		<path style="fill:#144B8E;" d="M188.608,33.756l0.323-0.502l6.515,4.184l-0.318,0.5l-0.697-0.444
			c-0.727-0.464-1.475-0.52-2.257-0.159c-0.363,0.154-0.879,0.745-1.54,1.768l-4.788,7.466c-1.187,1.851-2.292,3.164-3.313,3.944
			c-1.015,0.788-2.298,1.194-3.838,1.237c-1.54,0.038-3.231-0.535-5.08-1.719c-2.01-1.288-3.313-2.616-3.903-3.979
			c-0.591-1.369-0.728-2.78-0.414-4.229c0.232-0.995,1.056-2.601,2.479-4.817l4.615-7.194c0.732-1.133,1.056-1.974,0.965-2.527
			c-0.086-0.553-0.479-1.053-1.172-1.505l-0.691-0.442l0.323-0.502l7.953,5.108l-0.318,0.5l-0.707-0.449
			c-0.762-0.493-1.459-0.599-2.096-0.329c-0.438,0.182-0.984,0.786-1.646,1.818l-5.151,8.024c-0.454,0.715-0.914,1.578-1.379,2.581
			c-0.464,1.01-0.687,1.881-0.677,2.619c0.016,0.737,0.238,1.482,0.672,2.232c0.43,0.752,1.121,1.424,2.056,2.027
			c1.207,0.775,2.454,1.205,3.742,1.291c1.282,0.083,2.368-0.172,3.236-0.768c0.879-0.593,1.944-1.871,3.202-3.823l4.782-7.454
			c0.737-1.149,1.07-1.952,1.005-2.401c-0.102-0.629-0.495-1.164-1.191-1.611L188.608,33.756z"/>
		<path style="fill:#144B8E;" d="M198.854,40.151l4.025,4.358l-2.955,20.957l9.262-8.567c0.985-0.912,1.495-1.593,1.54-2.04
			c0.056-0.601-0.201-1.215-0.787-1.843l-0.516-0.561l0.439-0.401l5.171,5.585l-0.434,0.412l-0.53-0.573
			c-0.627-0.679-1.278-0.969-1.955-0.876c-0.408,0.058-1.07,0.507-1.969,1.338l-13.534,12.526l-0.394-0.424l3.136-22.553
			l-9.888,9.148c-0.984,0.917-1.505,1.591-1.556,2.03c-0.05,0.606,0.218,1.219,0.788,1.846l0.525,0.565l-0.439,0.409l-5.171-5.59
			l0.444-0.404l0.51,0.558c0.637,0.684,1.293,0.979,1.965,0.886c0.414-0.063,1.07-0.508,1.969-1.341l11.166-10.332
			c0.116-0.967,0.146-1.657,0.096-2.056c-0.051-0.401-0.212-0.906-0.495-1.512c-0.136-0.295-0.424-0.672-0.854-1.141L198.854,40.151
			z"/>
		<path style="fill:#144B8E;" d="M204.269,80.899l-0.505,0.321l-4.984-7.938l0.51-0.318l0.409,0.654
			c0.484,0.768,1.056,1.184,1.717,1.247c0.429,0.036,1.196-0.29,2.308-0.992l11.969-7.517c0.938-0.586,1.52-1.038,1.747-1.343
			c0.177-0.232,0.252-0.545,0.237-0.927c-0.035-0.541-0.187-1.025-0.465-1.464l-0.409-0.651l0.505-0.321l4.984,7.938l-0.505,0.318
			l-0.424-0.674c-0.47-0.755-1.04-1.164-1.707-1.23c-0.43-0.045-1.207,0.28-2.318,0.98l-11.968,7.514
			c-0.939,0.591-1.515,1.038-1.742,1.346c-0.172,0.235-0.248,0.545-0.232,0.942c0.03,0.525,0.187,1.012,0.46,1.447L204.269,80.899z"
			/>
		<path style="fill:#144B8E;" d="M233.351,94.688l-0.556,0.225c-0.414-0.672-0.863-1.126-1.338-1.364
			c-0.697-0.333-1.637-0.505-2.803-0.515l-20.119-0.228l-0.222-0.556l14.508-14.574c0.742-0.745,1.182-1.237,1.318-1.477
			c0.217-0.374,0.333-0.778,0.363-1.212c0.03-0.435-0.056-0.97-0.247-1.614l0.556-0.217l3.297,8.307l-0.561,0.219
			c-0.464-0.904-0.863-1.449-1.201-1.639c-0.344-0.189-0.692-0.209-1.051-0.068c-0.505,0.197-1.191,0.735-2.065,1.621l-9.872,9.895
			l13.675,0.131c1.349,0.013,2.247-0.073,2.691-0.255c0.293-0.111,0.51-0.364,0.662-0.76c0.146-0.396,0.141-0.959-0.021-1.694
			c-0.016-0.053-0.03-0.144-0.056-0.275l0.556-0.217L233.351,94.688z"/>
		<path style="fill:#144B8E;" d="M234.163,106.085l-8.554,1.24l0.691,4.757c0.172,1.237,0.475,2.035,0.914,2.394
			c0.57,0.485,1.479,0.669,2.722,0.553l0.091,0.591l-7.544,1.093l-0.086-0.593c1.04-0.298,1.691-0.545,1.964-0.74
			c0.349-0.248,0.597-0.601,0.743-1.068c0.151-0.472,0.161-1.154,0.03-2.063l-0.692-4.755l-7.136,1.038
			c-0.959,0.136-1.535,0.262-1.731,0.381c-0.192,0.114-0.334,0.286-0.43,0.513c-0.091,0.232-0.091,0.646-0.005,1.242l0.53,3.671
			c0.177,1.225,0.389,2.101,0.642,2.631c0.247,0.53,0.661,1.013,1.237,1.455c0.757,0.561,1.848,1.096,3.282,1.591l0.086,0.639
			l-5.696-1.081l-2.419-16.685l0.591-0.083l0.116,0.765c0.07,0.51,0.263,0.978,0.575,1.401c0.218,0.316,0.511,0.508,0.869,0.581
			c0.354,0.071,1.061,0.033,2.115-0.121l14.064-2.035c1.379-0.202,2.196-0.462,2.484-0.783c0.363-0.447,0.484-1.119,0.358-2.01
			l-0.116-0.768l0.596-0.083l2.419,16.677l-4.711,0.934l-0.091-0.628c1.105-0.387,1.853-0.745,2.242-1.081
			c0.384-0.331,0.651-0.783,0.798-1.343c0.096-0.452,0.075-1.214-0.086-2.29L234.163,106.085z"/>
		<path style="fill:#144B8E;" d="M213.873,143.467l0.47-5.822l10.792-6.555c0.02-0.551,0.045-0.995,0.075-1.338
			c0.01-0.137,0.025-0.293,0.046-0.449c0.015-0.157,0.04-0.329,0.061-0.495l-6.333-0.511c-1.368-0.115-2.237-0.035-2.591,0.243
			c-0.51,0.368-0.792,0.959-0.858,1.772l-0.065,0.854l-0.601-0.051l0.763-9.342l0.591,0.05l-0.066,0.818
			c-0.075,0.924,0.177,1.606,0.743,2.05c0.308,0.252,1.09,0.429,2.333,0.53l14.084,1.139c1.378,0.113,2.237,0.033,2.601-0.24
			c0.5-0.384,0.788-0.985,0.854-1.811l0.065-0.818l0.596,0.043l-0.646,7.943c-0.182,2.318-0.489,4.015-0.914,5.086
			c-0.429,1.07-1.126,1.954-2.096,2.646c-0.97,0.692-2.075,0.99-3.333,0.889c-1.338-0.11-2.464-0.646-3.378-1.596
			c-0.914-0.954-1.5-2.363-1.763-4.227l-6.62,4c-1.521,0.908-2.55,1.717-3.08,2.413c-0.53,0.702-0.904,1.646-1.137,2.823
			L213.873,143.467z M226.331,128.894c-0.015,0.196-0.03,0.373-0.051,0.524c-0.02,0.152-0.03,0.273-0.035,0.374
			c-0.172,2.081,0.157,3.677,0.97,4.808c0.818,1.131,1.919,1.752,3.313,1.863c1.358,0.111,2.5-0.232,3.424-1.01
			c0.919-0.783,1.439-1.879,1.551-3.282c0.051-0.621,0.015-1.475-0.096-2.551L226.331,128.894z"/>
		<path style="fill:#144B8E;" d="M230.886,163.242l-7.241-2.196l0.177-0.57c1.444,0.232,2.651,0.237,3.616,0.01
			c0.975-0.228,1.838-0.712,2.58-1.449c0.752-0.742,1.277-1.586,1.561-2.53c0.328-1.075,0.272-2.055-0.172-2.954
			c-0.444-0.898-1.081-1.47-1.909-1.727c-0.646-0.192-1.292-0.146-1.949,0.136c-0.964,0.404-2.459,1.611-4.464,3.616
			c-1.646,1.636-2.858,2.727-3.636,3.272c-0.783,0.55-1.611,0.898-2.479,1.055c-0.884,0.151-1.737,0.106-2.575-0.151
			c-1.586-0.475-2.763-1.505-3.54-3.085c-0.772-1.576-0.869-3.333-0.278-5.268c0.182-0.61,0.399-1.161,0.657-1.671
			c0.146-0.304,0.535-0.909,1.166-1.813c0.626-0.903,0.979-1.494,1.061-1.763c0.081-0.252,0.061-0.479-0.046-0.676
			c-0.11-0.197-0.394-0.399-0.853-0.622l0.166-0.57l7.182,2.177l-0.167,0.565c-1.586-0.187-2.823-0.167-3.707,0.061
			c-0.889,0.228-1.717,0.732-2.489,1.515c-0.772,0.778-1.333,1.728-1.672,2.833c-0.389,1.293-0.358,2.414,0.097,3.358
			c0.449,0.955,1.141,1.576,2.07,1.854c0.51,0.156,1.075,0.177,1.687,0.051c0.611-0.127,1.232-0.419,1.863-0.879
			c0.435-0.309,1.424-1.202,2.97-2.691c1.55-1.485,2.731-2.515,3.56-3.091c0.828-0.575,1.656-0.949,2.495-1.126
			c0.838-0.172,1.691-0.126,2.56,0.136c1.5,0.455,2.626,1.425,3.354,2.904c0.737,1.484,0.838,3.115,0.298,4.898
			c-0.338,1.11-0.965,2.207-1.894,3.287c-0.43,0.5-0.682,0.869-0.753,1.102c-0.08,0.268-0.07,0.515,0.041,0.731
			c0.111,0.212,0.389,0.45,0.843,0.697L230.886,163.242z"/>
		<path style="fill:#144B8E;" d="M204.622,168.555l-0.536-0.262l4.07-8.444l0.541,0.263l-0.339,0.702
			c-0.394,0.809-0.439,1.515-0.146,2.116c0.207,0.379,0.889,0.858,2.07,1.424l12.731,6.141c1,0.479,1.691,0.737,2.065,0.763
			c0.293,0.025,0.591-0.076,0.914-0.293c0.439-0.313,0.768-0.702,0.989-1.167l0.339-0.696l0.54,0.258l-4.07,8.443l-0.54-0.263
			l0.343-0.712c0.39-0.804,0.435-1.5,0.137-2.102c-0.197-0.389-0.879-0.873-2.065-1.443l-12.726-6.141
			c-0.995-0.476-1.687-0.732-2.07-0.763c-0.288-0.021-0.591,0.08-0.919,0.313c-0.435,0.304-0.758,0.688-0.985,1.151L204.622,168.555
			z"/>
		<path style="fill:#144B8E;" d="M211.242,196.87l-4.328-2.763l0.354-0.505c0.803,0.43,1.424,0.672,1.863,0.728
			c0.697,0.091,1.328-0.006,1.895-0.293c0.555-0.283,1.096-0.793,1.62-1.53l1.778-2.51l-13.655-9.65
			c-1.096-0.772-1.858-1.142-2.303-1.096c-0.606,0.075-1.151,0.459-1.646,1.151l-0.434,0.621l-0.49-0.344l5.353-7.58l0.49,0.344
			l-0.449,0.637c-0.535,0.752-0.682,1.454-0.45,2.09c0.146,0.395,0.718,0.939,1.718,1.646l13.659,9.646l1.511-2.146
			c0.591-0.838,0.949-1.47,1.075-1.908c0.156-0.581,0.106-1.192-0.137-1.858c-0.247-0.657-0.747-1.303-1.515-1.935l0.354-0.505
			l4.04,3.171L211.242,196.87z"/>
		<path style="fill:#144B8E;" d="M196.229,211.338l-5.731,5.034l-0.394-0.444l0.318-0.282c0.207-0.182,0.434-0.546,0.676-1.086
			c0.237-0.54,0.369-1.131,0.39-1.768c0.03-0.642-0.056-1.565-0.263-2.772l-1.525-9.721l-3.626-4.121
			c-0.884-1.005-1.55-1.545-2-1.591c-0.605-0.07-1.237,0.183-1.898,0.773l-0.535,0.464l-0.394-0.449l6.979-6.136l0.399,0.444
			l-0.586,0.516c-0.692,0.616-1,1.257-0.93,1.934c0.056,0.414,0.479,1.081,1.293,2l3.424,3.889l10.555,2.913
			c1.247,0.339,2.05,0.525,2.413,0.561c0.369,0.041,0.975-0.065,1.818-0.313c0.242-0.061,0.51-0.223,0.813-0.495l0.394,0.449
			l-7.024,6.182l-0.394-0.45l0.363-0.317c0.379-0.339,0.651-0.732,0.813-1.192c0.167-0.454,0.092-0.863-0.227-1.217
			c-0.253-0.288-0.96-0.601-2.121-0.929l-8.085-2.272l1.228,7.893c0.187,1.187,0.444,1.97,0.768,2.338
			c0.201,0.228,0.438,0.374,0.712,0.455c0.272,0.075,0.565,0.065,0.873-0.025c0.304-0.091,0.672-0.328,1.106-0.712L196.229,211.338z
			"/>
	</g>
	<path style="fill:#144B8E;" d="M166.091,222.321c0.116-2.354-1.696-4.358-4.05-4.475s-4.358,1.697-4.475,4.051
		c-0.116,2.353,1.697,4.357,4.051,4.469C163.97,226.487,165.975,224.675,166.091,222.321z"/>
	<path style="fill:#144B8E;" d="M88.237,218.448c0.116-2.354-1.697-4.358-4.05-4.475c-2.358-0.116-4.358,1.697-4.474,4.05
		c-0.121,2.354,1.697,4.358,4.05,4.475C86.116,222.614,88.121,220.802,88.237,218.448z"/>
	<g>
		<g>
			<path style="fill:#144B8E;" d="M103.826,219.842l4.035-1.021l0.363,0.076l-2.656,12.695c-0.171,0.849-0.247,1.374-0.222,1.601
				c0.03,0.213,0.137,0.409,0.338,0.561c0.202,0.162,0.636,0.318,1.313,0.475l-0.086,0.414l-5.651-1.187l0.086-0.409
				c0.712,0.137,1.182,0.167,1.409,0.106c0.227-0.065,0.409-0.182,0.525-0.344c0.121-0.161,0.273-0.691,0.459-1.601l1.697-8.115
				c0.228-1.091,0.338-1.803,0.333-2.121c0-0.252-0.061-0.449-0.177-0.586c-0.111-0.141-0.263-0.231-0.455-0.268
				c-0.278-0.061-0.682-0.024-1.217,0.106L103.826,219.842z"/>
			<path style="fill:#144B8E;" d="M112.133,235.819l0.036-0.424c0.979,0.07,1.909-0.081,2.792-0.46
				c0.869-0.368,1.752-1.075,2.631-2.105c0.869-1.035,1.515-2.196,1.935-3.494c-1.243,0.666-2.344,0.959-3.298,0.884
				c-1.076-0.091-1.964-0.581-2.662-1.475c-0.702-0.895-1-2.03-0.884-3.409c0.106-1.333,0.591-2.505,1.444-3.479
				c1.03-1.196,2.288-1.737,3.777-1.615c1.262,0.101,2.288,0.712,3.106,1.822c0.995,1.374,1.414,3.01,1.257,4.898
				c-0.136,1.707-0.691,3.252-1.641,4.656c-0.954,1.398-2.222,2.53-3.788,3.378c-1.278,0.692-2.631,0.985-4.06,0.879
				L112.133,235.819z M119.773,228.522c0.217-0.975,0.354-1.742,0.398-2.338c0.061-0.728,0-1.521-0.177-2.394
				c-0.177-0.869-0.484-1.546-0.898-2.035c-0.419-0.485-0.914-0.753-1.5-0.803c-0.671-0.051-1.283,0.201-1.833,0.757
				c-0.555,0.565-0.878,1.444-0.975,2.626c-0.131,1.591,0.101,2.858,0.697,3.808c0.439,0.692,1.015,1.061,1.727,1.121
				c0.349,0.03,0.768-0.02,1.252-0.151C118.955,228.992,119.395,228.79,119.773,228.522z"/>
			<path style="fill:#144B8E;" d="M124.99,236.633l-0.021-0.414c0.979-0.061,1.879-0.328,2.707-0.809
				c0.828-0.479,1.605-1.287,2.348-2.418c0.742-1.137,1.237-2.374,1.485-3.707c-1.146,0.818-2.202,1.242-3.162,1.282
				c-1.075,0.046-2.02-0.328-2.822-1.131c-0.813-0.798-1.242-1.889-1.303-3.268c-0.061-1.343,0.272-2.555,0.994-3.636
				c0.874-1.317,2.056-2.01,3.551-2.075c1.257-0.056,2.358,0.419,3.303,1.419c1.161,1.242,1.782,2.813,1.863,4.701
				c0.075,1.712-0.273,3.318-1.046,4.833c-0.772,1.505-1.884,2.782-3.338,3.817c-1.177,0.854-2.484,1.313-3.919,1.379
				L124.99,236.633z M131.656,228.437c0.091-0.984,0.126-1.772,0.101-2.363c-0.03-0.728-0.187-1.515-0.479-2.354
				c-0.283-0.833-0.667-1.475-1.142-1.898c-0.475-0.439-1.005-0.642-1.586-0.611c-0.671,0.021-1.247,0.354-1.727,0.975
				c-0.475,0.632-0.692,1.535-0.637,2.732c0.071,1.586,0.46,2.823,1.167,3.687c0.525,0.631,1.136,0.924,1.858,0.894
				c0.349-0.015,0.752-0.116,1.217-0.298C130.898,229.013,131.313,228.755,131.656,228.437z"/>
			<path style="fill:#144B8E;" d="M137.893,235.824l-0.076-0.414c0.965-0.182,1.828-0.561,2.591-1.141
				c0.758-0.576,1.429-1.475,2.02-2.697c0.591-1.222,0.925-2.51,1.005-3.868c-1.045,0.965-2.034,1.516-2.974,1.677
				c-1.065,0.188-2.046-0.065-2.949-0.757c-0.904-0.688-1.475-1.723-1.707-3.081c-0.228-1.323-0.051-2.565,0.525-3.731
				c0.696-1.419,1.782-2.253,3.257-2.505c1.247-0.217,2.394,0.111,3.464,0.984c1.304,1.086,2.116,2.561,2.444,4.429
				c0.288,1.682,0.142,3.318-0.429,4.919c-0.576,1.596-1.516,3.005-2.828,4.217c-1.056,0.994-2.298,1.616-3.712,1.863
				L137.893,235.824z M143.463,226.846c-0.031-0.989-0.102-1.772-0.197-2.348c-0.132-0.728-0.384-1.485-0.777-2.277
				c-0.385-0.793-0.849-1.379-1.374-1.742c-0.525-0.374-1.075-0.511-1.651-0.404c-0.661,0.116-1.187,0.51-1.591,1.191
				c-0.394,0.677-0.489,1.611-0.282,2.788c0.272,1.565,0.817,2.736,1.626,3.51c0.596,0.561,1.252,0.768,1.959,0.651
				c0.338-0.061,0.732-0.213,1.172-0.46C142.786,227.513,143.159,227.21,143.463,226.846z"/>
		</g>
	</g>
</g>
</svg>
